G04 #@! TF.GenerationSoftware,KiCad,Pcbnew,(5.1.2-1)-1*
G04 #@! TF.CreationDate,2020-11-05T16:21:26-08:00*
G04 #@! TF.ProjectId,Pressure Sensor,50726573-7375-4726-9520-53656e736f72,rev?*
G04 #@! TF.SameCoordinates,Original*
G04 #@! TF.FileFunction,Soldermask,Bot*
G04 #@! TF.FilePolarity,Negative*
%FSLAX46Y46*%
G04 Gerber Fmt 4.6, Leading zero omitted, Abs format (unit mm)*
G04 Created by KiCad (PCBNEW (5.1.2-1)-1) date 2020-11-05 16:21:26*
%MOMM*%
%LPD*%
G04 APERTURE LIST*
%ADD10C,0.100000*%
G04 APERTURE END LIST*
D10*
G36*
X157590442Y-23235518D02*
G01*
X157656627Y-23242037D01*
X157826466Y-23293557D01*
X157982991Y-23377222D01*
X158018729Y-23406552D01*
X158120186Y-23489814D01*
X158203448Y-23591271D01*
X158232778Y-23627009D01*
X158316443Y-23783534D01*
X158367963Y-23953373D01*
X158385359Y-24130000D01*
X158367963Y-24306627D01*
X158316443Y-24476466D01*
X158232778Y-24632991D01*
X158203448Y-24668729D01*
X158120186Y-24770186D01*
X158018729Y-24853448D01*
X157982991Y-24882778D01*
X157826466Y-24966443D01*
X157656627Y-25017963D01*
X157590443Y-25024481D01*
X157524260Y-25031000D01*
X157435740Y-25031000D01*
X157369557Y-25024481D01*
X157303373Y-25017963D01*
X157133534Y-24966443D01*
X156977009Y-24882778D01*
X156941271Y-24853448D01*
X156839814Y-24770186D01*
X156756552Y-24668729D01*
X156727222Y-24632991D01*
X156643557Y-24476466D01*
X156592037Y-24306627D01*
X156574641Y-24130000D01*
X156592037Y-23953373D01*
X156643557Y-23783534D01*
X156727222Y-23627009D01*
X156756552Y-23591271D01*
X156839814Y-23489814D01*
X156941271Y-23406552D01*
X156977009Y-23377222D01*
X157133534Y-23293557D01*
X157303373Y-23242037D01*
X157369558Y-23235518D01*
X157435740Y-23229000D01*
X157524260Y-23229000D01*
X157590442Y-23235518D01*
X157590442Y-23235518D01*
G37*
G36*
X157590443Y-20695519D02*
G01*
X157656627Y-20702037D01*
X157826466Y-20753557D01*
X157982991Y-20837222D01*
X158018729Y-20866552D01*
X158120186Y-20949814D01*
X158203448Y-21051271D01*
X158232778Y-21087009D01*
X158316443Y-21243534D01*
X158367963Y-21413373D01*
X158385359Y-21590000D01*
X158367963Y-21766627D01*
X158316443Y-21936466D01*
X158232778Y-22092991D01*
X158203448Y-22128729D01*
X158120186Y-22230186D01*
X158018729Y-22313448D01*
X157982991Y-22342778D01*
X157826466Y-22426443D01*
X157656627Y-22477963D01*
X157590442Y-22484482D01*
X157524260Y-22491000D01*
X157435740Y-22491000D01*
X157369558Y-22484482D01*
X157303373Y-22477963D01*
X157133534Y-22426443D01*
X156977009Y-22342778D01*
X156941271Y-22313448D01*
X156839814Y-22230186D01*
X156756552Y-22128729D01*
X156727222Y-22092991D01*
X156643557Y-21936466D01*
X156592037Y-21766627D01*
X156574641Y-21590000D01*
X156592037Y-21413373D01*
X156643557Y-21243534D01*
X156727222Y-21087009D01*
X156756552Y-21051271D01*
X156839814Y-20949814D01*
X156941271Y-20866552D01*
X156977009Y-20837222D01*
X157133534Y-20753557D01*
X157303373Y-20702037D01*
X157369558Y-20695518D01*
X157435740Y-20689000D01*
X157524260Y-20689000D01*
X157590443Y-20695519D01*
X157590443Y-20695519D01*
G37*
G36*
X158381000Y-19951000D02*
G01*
X156579000Y-19951000D01*
X156579000Y-18149000D01*
X158381000Y-18149000D01*
X158381000Y-19951000D01*
X158381000Y-19951000D01*
G37*
M02*
