G04 #@! TF.GenerationSoftware,KiCad,Pcbnew,(5.1.2-1)-1*
G04 #@! TF.CreationDate,2020-11-08T20:07:09-08:00*
G04 #@! TF.ProjectId,Pressure Sensor,50726573-7375-4726-9520-53656e736f72,rev?*
G04 #@! TF.SameCoordinates,Original*
G04 #@! TF.FileFunction,Copper,L1,Top*
G04 #@! TF.FilePolarity,Positive*
%FSLAX46Y46*%
G04 Gerber Fmt 4.6, Leading zero omitted, Abs format (unit mm)*
G04 Created by KiCad (PCBNEW (5.1.2-1)-1) date 2020-11-08 20:07:09*
%MOMM*%
%LPD*%
G04 APERTURE LIST*
%ADD10R,2.540000X1.524000*%
%ADD11O,1.700000X1.700000*%
%ADD12R,1.700000X1.700000*%
%ADD13C,0.100000*%
%ADD14C,1.150000*%
%ADD15C,0.800000*%
%ADD16C,0.250000*%
G04 APERTURE END LIST*
D10*
X140843000Y-22860000D03*
X140843000Y-25400000D03*
X140843000Y-27940000D03*
X140843000Y-30480000D03*
X124079000Y-30480000D03*
X124079000Y-27940000D03*
X124079000Y-25400000D03*
X124079000Y-22860000D03*
D11*
X149479000Y-28067000D03*
X149479000Y-25527000D03*
D12*
X149479000Y-22987000D03*
D13*
G36*
X144222505Y-27241204D02*
G01*
X144246773Y-27244804D01*
X144270572Y-27250765D01*
X144293671Y-27259030D01*
X144315850Y-27269520D01*
X144336893Y-27282132D01*
X144356599Y-27296747D01*
X144374777Y-27313223D01*
X144391253Y-27331401D01*
X144405868Y-27351107D01*
X144418480Y-27372150D01*
X144428970Y-27394329D01*
X144437235Y-27417428D01*
X144443196Y-27441227D01*
X144446796Y-27465495D01*
X144448000Y-27489999D01*
X144448000Y-28390001D01*
X144446796Y-28414505D01*
X144443196Y-28438773D01*
X144437235Y-28462572D01*
X144428970Y-28485671D01*
X144418480Y-28507850D01*
X144405868Y-28528893D01*
X144391253Y-28548599D01*
X144374777Y-28566777D01*
X144356599Y-28583253D01*
X144336893Y-28597868D01*
X144315850Y-28610480D01*
X144293671Y-28620970D01*
X144270572Y-28629235D01*
X144246773Y-28635196D01*
X144222505Y-28638796D01*
X144198001Y-28640000D01*
X143547999Y-28640000D01*
X143523495Y-28638796D01*
X143499227Y-28635196D01*
X143475428Y-28629235D01*
X143452329Y-28620970D01*
X143430150Y-28610480D01*
X143409107Y-28597868D01*
X143389401Y-28583253D01*
X143371223Y-28566777D01*
X143354747Y-28548599D01*
X143340132Y-28528893D01*
X143327520Y-28507850D01*
X143317030Y-28485671D01*
X143308765Y-28462572D01*
X143302804Y-28438773D01*
X143299204Y-28414505D01*
X143298000Y-28390001D01*
X143298000Y-27489999D01*
X143299204Y-27465495D01*
X143302804Y-27441227D01*
X143308765Y-27417428D01*
X143317030Y-27394329D01*
X143327520Y-27372150D01*
X143340132Y-27351107D01*
X143354747Y-27331401D01*
X143371223Y-27313223D01*
X143389401Y-27296747D01*
X143409107Y-27282132D01*
X143430150Y-27269520D01*
X143452329Y-27259030D01*
X143475428Y-27250765D01*
X143499227Y-27244804D01*
X143523495Y-27241204D01*
X143547999Y-27240000D01*
X144198001Y-27240000D01*
X144222505Y-27241204D01*
X144222505Y-27241204D01*
G37*
D14*
X143873000Y-27940000D03*
D13*
G36*
X146272505Y-27241204D02*
G01*
X146296773Y-27244804D01*
X146320572Y-27250765D01*
X146343671Y-27259030D01*
X146365850Y-27269520D01*
X146386893Y-27282132D01*
X146406599Y-27296747D01*
X146424777Y-27313223D01*
X146441253Y-27331401D01*
X146455868Y-27351107D01*
X146468480Y-27372150D01*
X146478970Y-27394329D01*
X146487235Y-27417428D01*
X146493196Y-27441227D01*
X146496796Y-27465495D01*
X146498000Y-27489999D01*
X146498000Y-28390001D01*
X146496796Y-28414505D01*
X146493196Y-28438773D01*
X146487235Y-28462572D01*
X146478970Y-28485671D01*
X146468480Y-28507850D01*
X146455868Y-28528893D01*
X146441253Y-28548599D01*
X146424777Y-28566777D01*
X146406599Y-28583253D01*
X146386893Y-28597868D01*
X146365850Y-28610480D01*
X146343671Y-28620970D01*
X146320572Y-28629235D01*
X146296773Y-28635196D01*
X146272505Y-28638796D01*
X146248001Y-28640000D01*
X145597999Y-28640000D01*
X145573495Y-28638796D01*
X145549227Y-28635196D01*
X145525428Y-28629235D01*
X145502329Y-28620970D01*
X145480150Y-28610480D01*
X145459107Y-28597868D01*
X145439401Y-28583253D01*
X145421223Y-28566777D01*
X145404747Y-28548599D01*
X145390132Y-28528893D01*
X145377520Y-28507850D01*
X145367030Y-28485671D01*
X145358765Y-28462572D01*
X145352804Y-28438773D01*
X145349204Y-28414505D01*
X145348000Y-28390001D01*
X145348000Y-27489999D01*
X145349204Y-27465495D01*
X145352804Y-27441227D01*
X145358765Y-27417428D01*
X145367030Y-27394329D01*
X145377520Y-27372150D01*
X145390132Y-27351107D01*
X145404747Y-27331401D01*
X145421223Y-27313223D01*
X145439401Y-27296747D01*
X145459107Y-27282132D01*
X145480150Y-27269520D01*
X145502329Y-27259030D01*
X145525428Y-27250765D01*
X145549227Y-27244804D01*
X145573495Y-27241204D01*
X145597999Y-27240000D01*
X146248001Y-27240000D01*
X146272505Y-27241204D01*
X146272505Y-27241204D01*
G37*
D14*
X145923000Y-27940000D03*
D13*
G36*
X146397505Y-24699204D02*
G01*
X146421773Y-24702804D01*
X146445572Y-24708765D01*
X146468671Y-24717030D01*
X146490850Y-24727520D01*
X146511893Y-24740132D01*
X146531599Y-24754747D01*
X146549777Y-24771223D01*
X146566253Y-24789401D01*
X146580868Y-24809107D01*
X146593480Y-24830150D01*
X146603970Y-24852329D01*
X146612235Y-24875428D01*
X146618196Y-24899227D01*
X146621796Y-24923495D01*
X146623000Y-24947999D01*
X146623000Y-25598001D01*
X146621796Y-25622505D01*
X146618196Y-25646773D01*
X146612235Y-25670572D01*
X146603970Y-25693671D01*
X146593480Y-25715850D01*
X146580868Y-25736893D01*
X146566253Y-25756599D01*
X146549777Y-25774777D01*
X146531599Y-25791253D01*
X146511893Y-25805868D01*
X146490850Y-25818480D01*
X146468671Y-25828970D01*
X146445572Y-25837235D01*
X146421773Y-25843196D01*
X146397505Y-25846796D01*
X146373001Y-25848000D01*
X145472999Y-25848000D01*
X145448495Y-25846796D01*
X145424227Y-25843196D01*
X145400428Y-25837235D01*
X145377329Y-25828970D01*
X145355150Y-25818480D01*
X145334107Y-25805868D01*
X145314401Y-25791253D01*
X145296223Y-25774777D01*
X145279747Y-25756599D01*
X145265132Y-25736893D01*
X145252520Y-25715850D01*
X145242030Y-25693671D01*
X145233765Y-25670572D01*
X145227804Y-25646773D01*
X145224204Y-25622505D01*
X145223000Y-25598001D01*
X145223000Y-24947999D01*
X145224204Y-24923495D01*
X145227804Y-24899227D01*
X145233765Y-24875428D01*
X145242030Y-24852329D01*
X145252520Y-24830150D01*
X145265132Y-24809107D01*
X145279747Y-24789401D01*
X145296223Y-24771223D01*
X145314401Y-24754747D01*
X145334107Y-24740132D01*
X145355150Y-24727520D01*
X145377329Y-24717030D01*
X145400428Y-24708765D01*
X145424227Y-24702804D01*
X145448495Y-24699204D01*
X145472999Y-24698000D01*
X146373001Y-24698000D01*
X146397505Y-24699204D01*
X146397505Y-24699204D01*
G37*
D14*
X145923000Y-25273000D03*
D13*
G36*
X146397505Y-22649204D02*
G01*
X146421773Y-22652804D01*
X146445572Y-22658765D01*
X146468671Y-22667030D01*
X146490850Y-22677520D01*
X146511893Y-22690132D01*
X146531599Y-22704747D01*
X146549777Y-22721223D01*
X146566253Y-22739401D01*
X146580868Y-22759107D01*
X146593480Y-22780150D01*
X146603970Y-22802329D01*
X146612235Y-22825428D01*
X146618196Y-22849227D01*
X146621796Y-22873495D01*
X146623000Y-22897999D01*
X146623000Y-23548001D01*
X146621796Y-23572505D01*
X146618196Y-23596773D01*
X146612235Y-23620572D01*
X146603970Y-23643671D01*
X146593480Y-23665850D01*
X146580868Y-23686893D01*
X146566253Y-23706599D01*
X146549777Y-23724777D01*
X146531599Y-23741253D01*
X146511893Y-23755868D01*
X146490850Y-23768480D01*
X146468671Y-23778970D01*
X146445572Y-23787235D01*
X146421773Y-23793196D01*
X146397505Y-23796796D01*
X146373001Y-23798000D01*
X145472999Y-23798000D01*
X145448495Y-23796796D01*
X145424227Y-23793196D01*
X145400428Y-23787235D01*
X145377329Y-23778970D01*
X145355150Y-23768480D01*
X145334107Y-23755868D01*
X145314401Y-23741253D01*
X145296223Y-23724777D01*
X145279747Y-23706599D01*
X145265132Y-23686893D01*
X145252520Y-23665850D01*
X145242030Y-23643671D01*
X145233765Y-23620572D01*
X145227804Y-23596773D01*
X145224204Y-23572505D01*
X145223000Y-23548001D01*
X145223000Y-22897999D01*
X145224204Y-22873495D01*
X145227804Y-22849227D01*
X145233765Y-22825428D01*
X145242030Y-22802329D01*
X145252520Y-22780150D01*
X145265132Y-22759107D01*
X145279747Y-22739401D01*
X145296223Y-22721223D01*
X145314401Y-22704747D01*
X145334107Y-22690132D01*
X145355150Y-22677520D01*
X145377329Y-22667030D01*
X145400428Y-22658765D01*
X145424227Y-22652804D01*
X145448495Y-22649204D01*
X145472999Y-22648000D01*
X146373001Y-22648000D01*
X146397505Y-22649204D01*
X146397505Y-22649204D01*
G37*
D14*
X145923000Y-23223000D03*
D15*
X138430000Y-28829000D03*
X138430000Y-25400000D03*
D16*
X144496372Y-28563372D02*
X143873000Y-27940000D01*
X145175001Y-29242001D02*
X144496372Y-28563372D01*
X150043001Y-29242001D02*
X145175001Y-29242001D01*
X150654001Y-28631001D02*
X150043001Y-29242001D01*
X150579000Y-22987000D02*
X150654001Y-23062001D01*
X150654001Y-23062001D02*
X150654001Y-28631001D01*
X149479000Y-22987000D02*
X150579000Y-22987000D01*
X143873000Y-27940000D02*
X140843000Y-27940000D01*
X140335000Y-27940000D02*
X139446000Y-28829000D01*
X140843000Y-27940000D02*
X140335000Y-27940000D01*
X139446000Y-28829000D02*
X138430000Y-28829000D01*
X138430000Y-28829000D02*
X138430000Y-28829000D01*
X140843000Y-25400000D02*
X139323000Y-25400000D01*
X139323000Y-25400000D02*
X138430000Y-25400000D01*
X138430000Y-25400000D02*
X138303000Y-25400000D01*
X145796000Y-25400000D02*
X145923000Y-25273000D01*
X140843000Y-25400000D02*
X145796000Y-25400000D01*
X145923000Y-25273000D02*
X145923000Y-27940000D01*
X149352000Y-27940000D02*
X149479000Y-28067000D01*
X145923000Y-27940000D02*
X149352000Y-27940000D01*
X145560000Y-22860000D02*
X145923000Y-23223000D01*
X140843000Y-22860000D02*
X145560000Y-22860000D01*
X147175000Y-23223000D02*
X149479000Y-25527000D01*
X145923000Y-23223000D02*
X147175000Y-23223000D01*
M02*
