G04 #@! TF.GenerationSoftware,KiCad,Pcbnew,(5.1.2-1)-1*
G04 #@! TF.CreationDate,2020-11-08T20:07:09-08:00*
G04 #@! TF.ProjectId,Pressure Sensor,50726573-7375-4726-9520-53656e736f72,rev?*
G04 #@! TF.SameCoordinates,Original*
G04 #@! TF.FileFunction,Soldermask,Bot*
G04 #@! TF.FilePolarity,Negative*
%FSLAX46Y46*%
G04 Gerber Fmt 4.6, Leading zero omitted, Abs format (unit mm)*
G04 Created by KiCad (PCBNEW (5.1.2-1)-1) date 2020-11-08 20:07:09*
%MOMM*%
%LPD*%
G04 APERTURE LIST*
%ADD10C,0.100000*%
G04 APERTURE END LIST*
D10*
G36*
X149589442Y-27172518D02*
G01*
X149655627Y-27179037D01*
X149825466Y-27230557D01*
X149981991Y-27314222D01*
X150017729Y-27343552D01*
X150119186Y-27426814D01*
X150202448Y-27528271D01*
X150231778Y-27564009D01*
X150315443Y-27720534D01*
X150366963Y-27890373D01*
X150384359Y-28067000D01*
X150366963Y-28243627D01*
X150315443Y-28413466D01*
X150231778Y-28569991D01*
X150202448Y-28605729D01*
X150119186Y-28707186D01*
X150017729Y-28790448D01*
X149981991Y-28819778D01*
X149825466Y-28903443D01*
X149655627Y-28954963D01*
X149589442Y-28961482D01*
X149523260Y-28968000D01*
X149434740Y-28968000D01*
X149368558Y-28961482D01*
X149302373Y-28954963D01*
X149132534Y-28903443D01*
X148976009Y-28819778D01*
X148940271Y-28790448D01*
X148838814Y-28707186D01*
X148755552Y-28605729D01*
X148726222Y-28569991D01*
X148642557Y-28413466D01*
X148591037Y-28243627D01*
X148573641Y-28067000D01*
X148591037Y-27890373D01*
X148642557Y-27720534D01*
X148726222Y-27564009D01*
X148755552Y-27528271D01*
X148838814Y-27426814D01*
X148940271Y-27343552D01*
X148976009Y-27314222D01*
X149132534Y-27230557D01*
X149302373Y-27179037D01*
X149368558Y-27172518D01*
X149434740Y-27166000D01*
X149523260Y-27166000D01*
X149589442Y-27172518D01*
X149589442Y-27172518D01*
G37*
G36*
X137367674Y-26937465D02*
G01*
X137405367Y-26948899D01*
X137440103Y-26967466D01*
X137470548Y-26992452D01*
X137495534Y-27022897D01*
X137514101Y-27057633D01*
X137525535Y-27095326D01*
X137530000Y-27140661D01*
X137530000Y-27977339D01*
X137525535Y-28022674D01*
X137514101Y-28060367D01*
X137495534Y-28095103D01*
X137470548Y-28125548D01*
X137440103Y-28150534D01*
X137405367Y-28169101D01*
X137367674Y-28180535D01*
X137322339Y-28185000D01*
X136235661Y-28185000D01*
X136190326Y-28180535D01*
X136152633Y-28169101D01*
X136117897Y-28150534D01*
X136087452Y-28125548D01*
X136062466Y-28095103D01*
X136043899Y-28060367D01*
X136032465Y-28022674D01*
X136028000Y-27977339D01*
X136028000Y-27140661D01*
X136032465Y-27095326D01*
X136043899Y-27057633D01*
X136062466Y-27022897D01*
X136087452Y-26992452D01*
X136117897Y-26967466D01*
X136152633Y-26948899D01*
X136190326Y-26937465D01*
X136235661Y-26933000D01*
X137322339Y-26933000D01*
X137367674Y-26937465D01*
X137367674Y-26937465D01*
G37*
G36*
X149589442Y-24632518D02*
G01*
X149655627Y-24639037D01*
X149825466Y-24690557D01*
X149981991Y-24774222D01*
X150017729Y-24803552D01*
X150119186Y-24886814D01*
X150189831Y-24972897D01*
X150231778Y-25024009D01*
X150315443Y-25180534D01*
X150366963Y-25350373D01*
X150384359Y-25527000D01*
X150366963Y-25703627D01*
X150315443Y-25873466D01*
X150231778Y-26029991D01*
X150211022Y-26055282D01*
X150119186Y-26167186D01*
X150017729Y-26250448D01*
X149981991Y-26279778D01*
X149825466Y-26363443D01*
X149655627Y-26414963D01*
X149589442Y-26421482D01*
X149523260Y-26428000D01*
X149434740Y-26428000D01*
X149368558Y-26421482D01*
X149302373Y-26414963D01*
X149132534Y-26363443D01*
X148976009Y-26279778D01*
X148940271Y-26250448D01*
X148838814Y-26167186D01*
X148746978Y-26055282D01*
X148726222Y-26029991D01*
X148642557Y-25873466D01*
X148591037Y-25703627D01*
X148573641Y-25527000D01*
X148591037Y-25350373D01*
X148642557Y-25180534D01*
X148726222Y-25024009D01*
X148768169Y-24972897D01*
X148838814Y-24886814D01*
X148940271Y-24803552D01*
X148976009Y-24774222D01*
X149132534Y-24690557D01*
X149302373Y-24639037D01*
X149368557Y-24632519D01*
X149434740Y-24626000D01*
X149523260Y-24626000D01*
X149589442Y-24632518D01*
X149589442Y-24632518D01*
G37*
G36*
X137367674Y-24887465D02*
G01*
X137405367Y-24898899D01*
X137440103Y-24917466D01*
X137470548Y-24942452D01*
X137495534Y-24972897D01*
X137514101Y-25007633D01*
X137525535Y-25045326D01*
X137530000Y-25090661D01*
X137530000Y-25927339D01*
X137525535Y-25972674D01*
X137514101Y-26010367D01*
X137495534Y-26045103D01*
X137470548Y-26075548D01*
X137440103Y-26100534D01*
X137405367Y-26119101D01*
X137367674Y-26130535D01*
X137322339Y-26135000D01*
X136235661Y-26135000D01*
X136190326Y-26130535D01*
X136152633Y-26119101D01*
X136117897Y-26100534D01*
X136087452Y-26075548D01*
X136062466Y-26045103D01*
X136043899Y-26010367D01*
X136032465Y-25972674D01*
X136028000Y-25927339D01*
X136028000Y-25090661D01*
X136032465Y-25045326D01*
X136043899Y-25007633D01*
X136062466Y-24972897D01*
X136087452Y-24942452D01*
X136117897Y-24917466D01*
X136152633Y-24898899D01*
X136190326Y-24887465D01*
X136235661Y-24883000D01*
X137322339Y-24883000D01*
X137367674Y-24887465D01*
X137367674Y-24887465D01*
G37*
G36*
X150380000Y-23888000D02*
G01*
X148578000Y-23888000D01*
X148578000Y-22086000D01*
X150380000Y-22086000D01*
X150380000Y-23888000D01*
X150380000Y-23888000D01*
G37*
M02*
