G04 #@! TF.GenerationSoftware,KiCad,Pcbnew,(5.1.2-1)-1*
G04 #@! TF.CreationDate,2020-11-08T20:07:09-08:00*
G04 #@! TF.ProjectId,Pressure Sensor,50726573-7375-4726-9520-53656e736f72,rev?*
G04 #@! TF.SameCoordinates,Original*
G04 #@! TF.FileFunction,Legend,Top*
G04 #@! TF.FilePolarity,Positive*
%FSLAX46Y46*%
G04 Gerber Fmt 4.6, Leading zero omitted, Abs format (unit mm)*
G04 Created by KiCad (PCBNEW (5.1.2-1)-1) date 2020-11-08 20:07:09*
%MOMM*%
%LPD*%
G04 APERTURE LIST*
%ADD10C,0.150000*%
%ADD11C,0.120000*%
G04 APERTURE END LIST*
D10*
X152019095Y-27694000D02*
X151923857Y-27646380D01*
X151781000Y-27646380D01*
X151638142Y-27694000D01*
X151542904Y-27789238D01*
X151495285Y-27884476D01*
X151447666Y-28074952D01*
X151447666Y-28217809D01*
X151495285Y-28408285D01*
X151542904Y-28503523D01*
X151638142Y-28598761D01*
X151781000Y-28646380D01*
X151876238Y-28646380D01*
X152019095Y-28598761D01*
X152066714Y-28551142D01*
X152066714Y-28217809D01*
X151876238Y-28217809D01*
X152495285Y-28646380D02*
X152495285Y-27646380D01*
X153066714Y-28646380D01*
X153066714Y-27646380D01*
X153542904Y-28646380D02*
X153542904Y-27646380D01*
X153781000Y-27646380D01*
X153923857Y-27694000D01*
X154019095Y-27789238D01*
X154066714Y-27884476D01*
X154114333Y-28074952D01*
X154114333Y-28217809D01*
X154066714Y-28408285D01*
X154019095Y-28503523D01*
X153923857Y-28598761D01*
X153781000Y-28646380D01*
X153542904Y-28646380D01*
X151614285Y-25106380D02*
X151947619Y-26106380D01*
X152280952Y-25106380D01*
X152757142Y-26106380D02*
X152661904Y-26058761D01*
X152614285Y-26011142D01*
X152566666Y-25915904D01*
X152566666Y-25630190D01*
X152614285Y-25534952D01*
X152661904Y-25487333D01*
X152757142Y-25439714D01*
X152900000Y-25439714D01*
X152995238Y-25487333D01*
X153042857Y-25534952D01*
X153090476Y-25630190D01*
X153090476Y-25915904D01*
X153042857Y-26011142D01*
X152995238Y-26058761D01*
X152900000Y-26106380D01*
X152757142Y-26106380D01*
X152209523Y-22566380D02*
X151733333Y-22566380D01*
X151685714Y-23042571D01*
X151733333Y-22994952D01*
X151828571Y-22947333D01*
X152066666Y-22947333D01*
X152161904Y-22994952D01*
X152209523Y-23042571D01*
X152257142Y-23137809D01*
X152257142Y-23375904D01*
X152209523Y-23471142D01*
X152161904Y-23518761D01*
X152066666Y-23566380D01*
X151828571Y-23566380D01*
X151733333Y-23518761D01*
X151685714Y-23471142D01*
X152542857Y-22566380D02*
X152876190Y-23566380D01*
X153209523Y-22566380D01*
X138454761Y-35377380D02*
X138454761Y-34377380D01*
X138692857Y-34377380D01*
X138835714Y-34425000D01*
X138930952Y-34520238D01*
X138978571Y-34615476D01*
X139026190Y-34805952D01*
X139026190Y-34948809D01*
X138978571Y-35139285D01*
X138930952Y-35234523D01*
X138835714Y-35329761D01*
X138692857Y-35377380D01*
X138454761Y-35377380D01*
X139454761Y-35377380D02*
X139454761Y-34710714D01*
X139454761Y-34377380D02*
X139407142Y-34425000D01*
X139454761Y-34472619D01*
X139502380Y-34425000D01*
X139454761Y-34377380D01*
X139454761Y-34472619D01*
X139788095Y-34710714D02*
X140169047Y-34710714D01*
X139930952Y-35377380D02*
X139930952Y-34520238D01*
X139978571Y-34425000D01*
X140073809Y-34377380D01*
X140169047Y-34377380D01*
X140359523Y-34710714D02*
X140740476Y-34710714D01*
X140502380Y-35377380D02*
X140502380Y-34520238D01*
X140550000Y-34425000D01*
X140645238Y-34377380D01*
X140740476Y-34377380D01*
X141835714Y-35377380D02*
X141835714Y-34377380D01*
X142216666Y-34377380D01*
X142311904Y-34425000D01*
X142359523Y-34472619D01*
X142407142Y-34567857D01*
X142407142Y-34710714D01*
X142359523Y-34805952D01*
X142311904Y-34853571D01*
X142216666Y-34901190D01*
X141835714Y-34901190D01*
X142835714Y-35377380D02*
X142835714Y-34710714D01*
X142835714Y-34901190D02*
X142883333Y-34805952D01*
X142930952Y-34758333D01*
X143026190Y-34710714D01*
X143121428Y-34710714D01*
X143835714Y-35329761D02*
X143740476Y-35377380D01*
X143550000Y-35377380D01*
X143454761Y-35329761D01*
X143407142Y-35234523D01*
X143407142Y-34853571D01*
X143454761Y-34758333D01*
X143550000Y-34710714D01*
X143740476Y-34710714D01*
X143835714Y-34758333D01*
X143883333Y-34853571D01*
X143883333Y-34948809D01*
X143407142Y-35044047D01*
X144264285Y-35329761D02*
X144359523Y-35377380D01*
X144550000Y-35377380D01*
X144645238Y-35329761D01*
X144692857Y-35234523D01*
X144692857Y-35186904D01*
X144645238Y-35091666D01*
X144550000Y-35044047D01*
X144407142Y-35044047D01*
X144311904Y-34996428D01*
X144264285Y-34901190D01*
X144264285Y-34853571D01*
X144311904Y-34758333D01*
X144407142Y-34710714D01*
X144550000Y-34710714D01*
X144645238Y-34758333D01*
X145073809Y-35329761D02*
X145169047Y-35377380D01*
X145359523Y-35377380D01*
X145454761Y-35329761D01*
X145502380Y-35234523D01*
X145502380Y-35186904D01*
X145454761Y-35091666D01*
X145359523Y-35044047D01*
X145216666Y-35044047D01*
X145121428Y-34996428D01*
X145073809Y-34901190D01*
X145073809Y-34853571D01*
X145121428Y-34758333D01*
X145216666Y-34710714D01*
X145359523Y-34710714D01*
X145454761Y-34758333D01*
X146359523Y-34710714D02*
X146359523Y-35377380D01*
X145930952Y-34710714D02*
X145930952Y-35234523D01*
X145978571Y-35329761D01*
X146073809Y-35377380D01*
X146216666Y-35377380D01*
X146311904Y-35329761D01*
X146359523Y-35282142D01*
X146835714Y-35377380D02*
X146835714Y-34710714D01*
X146835714Y-34901190D02*
X146883333Y-34805952D01*
X146930952Y-34758333D01*
X147026190Y-34710714D01*
X147121428Y-34710714D01*
X147835714Y-35329761D02*
X147740476Y-35377380D01*
X147550000Y-35377380D01*
X147454761Y-35329761D01*
X147407142Y-35234523D01*
X147407142Y-34853571D01*
X147454761Y-34758333D01*
X147550000Y-34710714D01*
X147740476Y-34710714D01*
X147835714Y-34758333D01*
X147883333Y-34853571D01*
X147883333Y-34948809D01*
X147407142Y-35044047D01*
X149026190Y-35329761D02*
X149169047Y-35377380D01*
X149407142Y-35377380D01*
X149502380Y-35329761D01*
X149550000Y-35282142D01*
X149597619Y-35186904D01*
X149597619Y-35091666D01*
X149550000Y-34996428D01*
X149502380Y-34948809D01*
X149407142Y-34901190D01*
X149216666Y-34853571D01*
X149121428Y-34805952D01*
X149073809Y-34758333D01*
X149026190Y-34663095D01*
X149026190Y-34567857D01*
X149073809Y-34472619D01*
X149121428Y-34425000D01*
X149216666Y-34377380D01*
X149454761Y-34377380D01*
X149597619Y-34425000D01*
X150407142Y-35329761D02*
X150311904Y-35377380D01*
X150121428Y-35377380D01*
X150026190Y-35329761D01*
X149978571Y-35234523D01*
X149978571Y-34853571D01*
X150026190Y-34758333D01*
X150121428Y-34710714D01*
X150311904Y-34710714D01*
X150407142Y-34758333D01*
X150454761Y-34853571D01*
X150454761Y-34948809D01*
X149978571Y-35044047D01*
X150883333Y-34710714D02*
X150883333Y-35377380D01*
X150883333Y-34805952D02*
X150930952Y-34758333D01*
X151026190Y-34710714D01*
X151169047Y-34710714D01*
X151264285Y-34758333D01*
X151311904Y-34853571D01*
X151311904Y-35377380D01*
X151740476Y-35329761D02*
X151835714Y-35377380D01*
X152026190Y-35377380D01*
X152121428Y-35329761D01*
X152169047Y-35234523D01*
X152169047Y-35186904D01*
X152121428Y-35091666D01*
X152026190Y-35044047D01*
X151883333Y-35044047D01*
X151788095Y-34996428D01*
X151740476Y-34901190D01*
X151740476Y-34853571D01*
X151788095Y-34758333D01*
X151883333Y-34710714D01*
X152026190Y-34710714D01*
X152121428Y-34758333D01*
X152740476Y-35377380D02*
X152645238Y-35329761D01*
X152597619Y-35282142D01*
X152550000Y-35186904D01*
X152550000Y-34901190D01*
X152597619Y-34805952D01*
X152645238Y-34758333D01*
X152740476Y-34710714D01*
X152883333Y-34710714D01*
X152978571Y-34758333D01*
X153026190Y-34805952D01*
X153073809Y-34901190D01*
X153073809Y-35186904D01*
X153026190Y-35282142D01*
X152978571Y-35329761D01*
X152883333Y-35377380D01*
X152740476Y-35377380D01*
X153502380Y-35377380D02*
X153502380Y-34710714D01*
X153502380Y-34901190D02*
X153550000Y-34805952D01*
X153597619Y-34758333D01*
X153692857Y-34710714D01*
X153788095Y-34710714D01*
D11*
X138366500Y-32575500D02*
X138366500Y-20764500D01*
X138366500Y-20764500D02*
X126555500Y-20764500D01*
X138366500Y-32575500D02*
X126555500Y-32575500D01*
X126555500Y-32575500D02*
X126555500Y-20764500D01*
X134493000Y-32575500D02*
X134493000Y-38671500D01*
X130429000Y-32575500D02*
X130429000Y-38671500D01*
X139573000Y-33020000D02*
G75*
G03X139573000Y-33020000I-254000J0D01*
G01*
X149479000Y-21657000D02*
X150809000Y-21657000D01*
X150809000Y-21657000D02*
X150809000Y-22987000D01*
X150809000Y-24257000D02*
X150809000Y-29397000D01*
X148149000Y-29397000D02*
X150809000Y-29397000D01*
X148149000Y-24257000D02*
X148149000Y-29397000D01*
X148149000Y-24257000D02*
X150809000Y-24257000D01*
X144636748Y-27230000D02*
X145159252Y-27230000D01*
X144636748Y-28650000D02*
X145159252Y-28650000D01*
X145213000Y-24509252D02*
X145213000Y-23986748D01*
X146633000Y-24509252D02*
X146633000Y-23986748D01*
D10*
X131445095Y-19264380D02*
X131445095Y-20073904D01*
X131492714Y-20169142D01*
X131540333Y-20216761D01*
X131635571Y-20264380D01*
X131826047Y-20264380D01*
X131921285Y-20216761D01*
X131968904Y-20169142D01*
X132016523Y-20073904D01*
X132016523Y-19264380D01*
X133016523Y-20264380D02*
X132445095Y-20264380D01*
X132730809Y-20264380D02*
X132730809Y-19264380D01*
X132635571Y-19407238D01*
X132540333Y-19502476D01*
X132445095Y-19550095D01*
X149145666Y-19669380D02*
X149145666Y-20383666D01*
X149098047Y-20526523D01*
X149002809Y-20621761D01*
X148859952Y-20669380D01*
X148764714Y-20669380D01*
X150145666Y-20669380D02*
X149574238Y-20669380D01*
X149859952Y-20669380D02*
X149859952Y-19669380D01*
X149764714Y-19812238D01*
X149669476Y-19907476D01*
X149574238Y-19955095D01*
X144731333Y-26647142D02*
X144683714Y-26694761D01*
X144540857Y-26742380D01*
X144445619Y-26742380D01*
X144302761Y-26694761D01*
X144207523Y-26599523D01*
X144159904Y-26504285D01*
X144112285Y-26313809D01*
X144112285Y-26170952D01*
X144159904Y-25980476D01*
X144207523Y-25885238D01*
X144302761Y-25790000D01*
X144445619Y-25742380D01*
X144540857Y-25742380D01*
X144683714Y-25790000D01*
X144731333Y-25837619D01*
X145683714Y-26742380D02*
X145112285Y-26742380D01*
X145398000Y-26742380D02*
X145398000Y-25742380D01*
X145302761Y-25885238D01*
X145207523Y-25980476D01*
X145112285Y-26028095D01*
X144630142Y-24414666D02*
X144677761Y-24462285D01*
X144725380Y-24605142D01*
X144725380Y-24700380D01*
X144677761Y-24843238D01*
X144582523Y-24938476D01*
X144487285Y-24986095D01*
X144296809Y-25033714D01*
X144153952Y-25033714D01*
X143963476Y-24986095D01*
X143868238Y-24938476D01*
X143773000Y-24843238D01*
X143725380Y-24700380D01*
X143725380Y-24605142D01*
X143773000Y-24462285D01*
X143820619Y-24414666D01*
X143725380Y-24081333D02*
X143725380Y-23462285D01*
X144106333Y-23795619D01*
X144106333Y-23652761D01*
X144153952Y-23557523D01*
X144201571Y-23509904D01*
X144296809Y-23462285D01*
X144534904Y-23462285D01*
X144630142Y-23509904D01*
X144677761Y-23557523D01*
X144725380Y-23652761D01*
X144725380Y-23938476D01*
X144677761Y-24033714D01*
X144630142Y-24081333D01*
M02*
